<svg xmlns="http://www.w3.org/2000/svg" xmlns:xlink="http://www.w3.org/1999/xlink" version="1.1" x="0px" y="0px" viewBox="0 0 70 87.5" enable-background="new 0 0 70 70" xml:space="preserve"><g><g><path d="M17.6621227,47.6682434c-2.4055185,0-4.3929453,1.977478-4.3929453,4.3929443    c0,2.4249268,1.9680786,4.3929443,4.3929453,4.3929443c2.4249268,0,4.3929443-1.9680176,4.3929443-4.3929443    C22.0550671,49.6476135,20.0695934,47.6682434,17.6621227,47.6682434z M17.6618176,53.9399719    c-1.0351563,0-1.8779306-0.8427734-1.8779306-1.878418c0-1.0361328,0.8427744-1.8789063,1.8779306-1.8789063    c1.0361328,0,1.8789063,0.8427734,1.8789063,1.8789063C19.5407238,53.0971985,18.6979504,53.9399719,17.6618176,53.9399719z"/><path d="M55.6477776,47.6682434c-2.4329834,0-4.3929443,2.0015869-4.3929443,4.3929443    c0,2.4249268,1.9680176,4.3929443,4.3929443,4.3929443c2.4248657,0,4.3928833-1.9680176,4.3928833-4.3929443    C60.0406609,49.6476135,58.0551872,47.6682434,55.6477776,47.6682434z M55.6491203,53.9399719    c-1.0361328,0-1.8789063-0.8427734-1.8789063-1.8789063c0-1.0356445,0.8427734-1.878418,1.8789063-1.878418    s1.8789063,0.8427734,1.8789063,1.878418C57.5280266,53.0971985,56.6852531,53.9399719,55.6491203,53.9399719z"/></g><g><path d="M16.0700207,31.3052063h-0.6782236c0.1997681,2.031189,1.0064707,3.8867798,2.2370615,5.3835449l0.4743652-0.4743652    c0.390625-0.390625,1.0234375-0.390625,1.4140625,0s0.390625,1.0234375,0,1.4140625l-0.4723511,0.4723511    c1.4970703,1.2244873,3.3514404,2.0281372,5.3815308,2.2285767v-0.6672363c0-0.5522461,0.4472656-1,1-1    c0.5527229,0,1,0.4477539,1,1v0.6671143c2.0285034-0.2011108,3.8813477-1.0065918,5.3760986-2.2338867l-0.4669189-0.4669189    c-0.390625-0.390625-0.390625-1.0234375,0-1.4140625s1.0234356-0.390625,1.4140606,0l0.4653931,0.4653931    c1.223999-1.4953003,2.0266724-3.34729,2.225647-5.3745728h-0.6578369c-0.5527344,0-1-0.4477539-1-1s0.4472656-1,1-1h0.6569214    c-0.2019653-2.0261841-1.0053711-3.8768921-2.2277832-5.371521l-0.4623413,0.4623413    c-0.390625,0.390625-1.0234356,0.390625-1.4140606,0s-0.390625-1.0234375,0-1.4140625l0.4643555-0.4643555    c-1.4943237-1.2285767-3.3461304-2.0349731-5.3735352-2.2363281v0.6674805c0,0.5522461-0.4472771,1-1,1    c-0.5527344,0-1-0.4477539-1-1v-0.6676025c-2.0289917,0.2007446-3.8823242,1.0053711-5.3789673,2.2310181l0.4697876,0.4697876    c0.390625,0.390625,0.390625,1.0234375,0,1.4140625s-1.0234375,0.390625-1.4140625,0l-0.4713135-0.4713135    c-1.2289429,1.4960938-2.0363779,3.3503418-2.2391977,5.3804932h0.6773081c0.5527344,0,1,0.4477539,1,1    S16.6227551,31.3052063,16.0700207,31.3052063z M20.5905285,34.0346985l3.8261719-4.1220703v-5.5976563    c0-0.5522461,0.4472656-1,1-1s1,0.4477539,1,1v5.9902344c0,0.2524414-0.0957031,0.4951172-0.2666016,0.6801758    l-4.0927734,4.409668c-0.3742065,0.4028931-1.0054321,0.4304199-1.4140625,0.0527344    C20.238966,35.0722961,20.2155285,34.4394836,20.5905285,34.0346985z"/><path d="M66.7816925,45.4458923c-0.1900024-0.2399902-0.4799805-0.3800049-0.7799683-0.3800049h-0.5400391v-2.9899902    c0-0.1199951-0.0299683-0.25-0.0700073-0.3599854l-1.8199501-4.6700439l-2.4000244-11.0499878    c-0.0999756-0.4599609-0.5100098-0.789978-0.9799805-0.789978H48.7116814v19.8599854h-2V13.5458679H4.0017214    c-0.5599976,0-1,0.4400024-1,1v31.5200195c0,0.5599976,0.4400024,1,1,1h3.5799561v2.5200195c0,0.5499878,0.4400024,1,1,1    h2.8699951c0.6600342-2.8200073,3.2000122-4.9199829,6.2100229-4.9199829c3.0200195,0,5.5499878,2.0999756,6.210022,4.9199829    h25.5599957c0.6599731-2.8200073,3.2000122-4.9199829,6.2199707-4.9199829c3.0100098,0,5.5499878,2.0999756,6.210022,4.9199829    h3.3499794c0.4700317,0,0.8800049-0.3300171,0.9800415-0.7900391l0.7799683-3.5099487    C67.0417023,45.9858704,66.9716949,45.6758728,66.7816925,45.4458923z M37.4917107,30.3658752    c-0.0300293,6.6500244-5.4500122,12.0100098-12.0700054,12.0100098c-6.6600342,0-12.080018-5.4099731-12.080018-12.0599976    c0-6.6499634,5.4000254-12.0899658,12.080018-12.0899658c6.5999737,0,12.0200176,5.3599854,12.0700054,12.0099487    c0,0.0300293,0.0100098,0.0500488,0.0100098,0.0700073C37.5017204,30.3258972,37.4917107,30.3459167,37.4917107,30.3658752z     M53.6217155,36.335907v-9.1300049h5.7600098l1.9899902,9.1300049H53.6217155z"/></g></g><text x="0" y="85" fill="#000000" font-size="5px" font-weight="bold" font-family="'Helvetica Neue', Helvetica, Arial-Unicode, Arial, Sans-serif">Created by Vectors Point</text><text x="0" y="90" fill="#000000" font-size="5px" font-weight="bold" font-family="'Helvetica Neue', Helvetica, Arial-Unicode, Arial, Sans-serif">from the Noun Project</text></svg>