<svg xmlns="http://www.w3.org/2000/svg" data-name="Layer 1" viewBox="0 0 100 125" x="0px" y="0px"><title>Artboard 28</title><path d="M9,71h6.39v6.63a8,8,0,0,0,8,8h27a2.5,2.5,0,0,0,0-5h-27a3,3,0,0,1-3-3V71H44.14a2.5,2.5,0,0,0,0-5H9a3,3,0,0,1-3-3v-39H72.88v6.17a2.5,2.5,0,1,0,5,0V14.43a8,8,0,0,0-8-8H9a8,8,0,0,0-8,8V63A8,8,0,0,0,9,71ZM9,11.47h61a3,3,0,0,1,3,3v4.64H6V14.43A3,3,0,0,1,9,11.47Z"/><path d="M22,55H13.85a2.5,2.5,0,0,0,0,5H22a2.5,2.5,0,0,0,0-5Z"/><path d="M33.6,55a2.5,2.5,0,1,0,0,5h8.12a2.5,2.5,0,1,0,0-5Z"/><path d="M29.85,42.47V36.6A5.57,5.57,0,0,0,24.29,31H16.91a5.57,5.57,0,0,0-5.56,5.56v5.87A5.57,5.57,0,0,0,16.91,48h7.39A5.57,5.57,0,0,0,29.85,42.47Zm-5,0a.56.56,0,0,1-.56.56H16.91a.56.56,0,0,1-.56-.56V36.6a.56.56,0,0,1,.56-.56h7.39a.56.56,0,0,1,.56.56Z"/><path d="M98.89,48a2.5,2.5,0,0,0-2.5-2.5c-8.16,0-14.1-2.24-19.26-7.26a2.5,2.5,0,0,0-3.49,0c-5.16,5-11.1,7.26-19.26,7.26a2.5,2.5,0,0,0-2.5,2.5c0,1.36,0,2.77-.05,4.22-.27,14-.63,33.06,22.74,41.16a2.5,2.5,0,0,0,1.64,0c23.37-8.1,23-27.21,22.74-41.16C98.91,50.78,98.89,49.37,98.89,48ZM75.38,88.38c-19.11-7.05-18.82-22.44-18.56-36,0-.64,0-1.26,0-1.88a30,30,0,0,0,18.52-7,30,30,0,0,0,18.52,7c0,.62,0,1.25,0,1.88C94.2,65.93,94.5,81.33,75.38,88.38Z"/><path d="M80.66,59,72.84,66.8,70.1,64.06a2.5,2.5,0,0,0-3.54,3.54l4.51,4.51a2.5,2.5,0,0,0,3.54,0l9.59-9.59A2.5,2.5,0,0,0,80.66,59Z"/><text x="0" y="115" fill="#000000" font-size="5px" font-weight="bold" font-family="'Helvetica Neue', Helvetica, Arial-Unicode, Arial, Sans-serif">Created by Gregor Cresnar</text><text x="0" y="120" fill="#000000" font-size="5px" font-weight="bold" font-family="'Helvetica Neue', Helvetica, Arial-Unicode, Arial, Sans-serif">from the Noun Project</text></svg>